<svg xmlns="http://www.w3.org/2000/svg" xmlns:xlink="http://www.w3.org/1999/xlink" version="1.1" x="0px" y="0px" viewBox="0 0 80 80" enable-background="new 0 0 80 80" xml:space="preserve"><g><g><path fill="#999999" d="M20.319,58.181l1.221-8.292l26.543-26.543c0.957-0.958,2.626-0.958,3.584,0l3.486,3.487    c0.479,0.479,0.743,1.115,0.743,1.792s-0.264,1.313-0.743,1.792L28.611,56.96L20.319,58.181z M23.422,50.835l-0.732,4.975    l4.975-0.732L53.74,29.002c0.101-0.101,0.157-0.235,0.157-0.378s-0.056-0.277-0.157-0.377l-3.487-3.487    c-0.202-0.202-0.554-0.202-0.755,0L23.422,50.835z"></path></g><g><rect x="23.161" y="50.339" transform="matrix(0.7071 0.7071 -0.7071 0.7071 44.2574 -4.169)" fill="#999999" width="8.001" height="2"></rect></g><g><rect x="44.667" y="28.833" transform="matrix(0.7071 0.7071 -0.7071 0.7071 35.3493 -25.6751)" fill="#999999" width="8" height="2"></rect></g></g><g><g><polygon fill="#999999" points="48.753,59.445 38.75,49.443 40.165,48.029 48.753,56.617 55.117,50.253 46.367,41.503     47.781,40.089 57.945,50.253   "></polygon></g><g><polygon fill="#999999" points="29.277,39.969 19.055,29.747 28.247,20.555 38.407,30.714 36.993,32.128 28.247,23.383     21.883,29.747 30.691,38.555   "></polygon></g><g><rect x="29.369" y="24.918" transform="matrix(0.7071 0.7071 -0.7071 0.7071 27.9289 -13.5895)" fill="#999999" width="2" height="4"></rect></g><g><rect x="33.611" y="29.161" transform="matrix(0.7071 0.7071 -0.7071 0.7071 32.1715 -15.3467)" fill="#999999" width="2" height="4"></rect></g><g><rect x="46.339" y="41.889" transform="matrix(0.7071 0.7071 -0.7071 0.7071 44.8996 -20.6188)" fill="#999999" width="2" height="4"></rect></g><g><rect x="50.582" y="46.132" transform="matrix(0.7071 0.7071 -0.7071 0.7071 49.1421 -22.3762)" fill="#999999" width="2" height="4"></rect></g></g></svg>